<svg width="259" height="150" viewBox="0 0 259 150" fill="none" xmlns="http://www.w3.org/2000/svg">
<g clip-path="url(#clip0_601_8)">
<rect width="258.93" height="149.32" rx="6.35417" fill="url(#paint0_linear_601_8)"/>
<path d="M183.257 138.242C187.597 140.561 192.037 142.311 196.525 144.104C200.535 145.692 204.563 146.93 208.592 148.169C214.261 149.841 219.901 151.123 225.592 152.01C229.178 152.564 232.749 153.032 236.353 153.455C237.708 153.635 246.751 153.924 248.105 154.323C244.496 159.301 244.023 162.84 240.414 167.819C235.681 166.905 220.126 167.103 215.394 165.971C200.993 162.537 186.955 157.306 173.331 149.887C166.765 146.322 160.457 142.403 154.297 137.956C151.582 135.984 148.979 133.965 146.36 131.859C143.742 129.754 141.188 127.56 138.666 125.321C134.226 121.306 129.962 117.155 125.989 112.604C122.87 109.031 123.193 103.839 126.018 101.452C133.172 109.922 140.841 117.681 149.283 124.591C157.311 131.208 165.76 137.028 174.646 141.922C177.174 143.29 179.425 143.097 181.383 141.474C182.442 140.661 182.691 139.347 183.257 138.242Z" fill="#00C389"/>
<path d="M183.065 138.171C182.443 139.243 182.231 140.605 181.199 141.388C179.229 143.036 176.978 143.253 174.465 141.908C165.631 137.092 157.242 131.343 149.28 124.79C140.908 117.948 133.299 110.159 126.24 101.825C121.395 95.6769 116.728 89.3913 112.625 82.6471C109.019 76.7139 105.624 70.5978 102.79 64.2419C104.781 62.2436 104.838 61.6299 103.653 58.8798C93.9187 36.0589 89.7503 12.9372 90.5757 -10.5507C90.6004 -11.1195 90.5308 -11.7721 90.9362 -12.2244C93.2225 -12.7053 95.4808 -12.3987 97.5233 -10.5115C99.1414 -9.00106 100.162 -6.98724 100.114 -4.88873C100.002 -0.778507 100.304 3.40321 100.432 7.50426C100.452 9.29438 100.679 11.1203 100.938 12.9012C101.461 17.2055 102.031 21.5516 102.921 25.8856C104.211 32.126 105.805 38.2675 107.878 44.3906C110.528 52.2824 113.821 59.9312 117.674 67.3401C121.575 74.7908 126.088 81.825 131.1 88.4905C134.207 92.652 137.571 96.6726 141.145 100.51C146.069 105.694 151.058 110.788 156.68 115.115C161.059 118.485 165.549 121.808 170.141 124.776C173.249 126.797 176.408 128.642 179.566 130.486C181.873 131.796 183.145 135.067 183.198 136.812C183.158 137.294 183.072 137.734 183.065 138.171Z" fill="#B47BE8"/>
<path d="M91.4012 -12.6177C90.9935 -12.1626 91.0628 -11.5068 91.0375 -10.935C90.1884 12.6742 94.3568 35.9102 104.118 58.8379C105.306 61.6009 105.348 63.2464 103.246 64.2284C101.123 64.795 99.4039 63.1944 98.4311 60.9937C94.281 51.3669 91.1905 41.5667 88.8245 31.5184C85.2335 16.0744 84.0422 0.75533 84.7699 -14.4198C85.0884 -21.1934 85.8221 -27.8955 86.2681 -34.6302C86.4385 -37.2272 86.6563 -39.7822 86.9542 -42.3403C87.1975 -44.5011 88.4462 -45.4723 90.3289 -45.0635C92.0039 -44.6905 93.461 -42.7284 93.3487 -40.7483C92.9933 -35.6416 92.5905 -30.5769 92.2023 -25.425C91.9121 -21.3745 91.5746 -17.366 91.2844 -13.3155C91.2335 -13.1379 91.3574 -12.8794 91.4012 -12.6177Z" fill="#FF7D35"/>
<path d="M163.996 9.01115C154.907 10.1948 146.126 11.9166 137.344 14.6068C136.182 15.0014 135.499 16.3286 135.772 17.5122C136.422 20.1666 136.729 21.4937 137.378 24.1839C137.652 25.2959 138.745 25.9057 139.838 25.5111C148.825 22.6057 157.846 20.6329 167.139 19.1981C168.199 19.0546 168.78 17.9068 168.404 16.7231C167.584 14.284 167.174 13.0644 166.319 10.6253C165.944 9.58506 164.987 8.90352 163.996 9.01115ZM201.001 10.7687C196.833 10.7687 193.279 11.2709 188.598 11.9883V51.0862H202.675C210.329 51.0862 217.095 46.3514 217.095 39.2851C217.095 33.9045 214.874 30.5688 209.68 28.9905C213.063 27.5917 214.942 25.0448 214.942 21.2428C214.908 14.5709 208.723 10.7687 201.001 10.7687ZM201.001 18.3731C204.589 18.3731 206.263 20.1307 206.263 22.6057C206.263 25.2242 204.657 26.7308 201.24 26.7308H197.345V18.6959C198.541 18.5166 199.805 18.3731 201.001 18.3731ZM232.573 20.2742C228.815 20.2742 225.329 21.2428 221.776 22.6417L222.459 24.8297C223.382 27.4839 224.475 28.4165 225.842 28.4165C226.423 28.4165 230.831 27.6274 232.471 27.6274C235.614 27.6274 237.049 28.5959 237.22 32.3622C227.79 32.6491 219.828 34.8014 219.828 43.446C219.828 49.1851 224.817 51.8037 230.797 51.8037C237.528 51.8037 242.516 50.4765 245.591 48.0014V32.0037C245.626 23.5382 240.808 20.2742 232.573 20.2742ZM171.582 23.8254C157.367 25.7265 143.529 29.4211 130.374 35.5545C129.417 36.0211 128.836 37.3122 129.041 38.4242C129.554 41.2937 129.827 42.6928 130.339 45.5622C130.579 46.7819 131.638 47.3557 132.731 46.7819C146.091 40.3611 160.169 36.2719 174.623 33.8328C175.545 33.6894 176.023 32.5774 175.648 31.4297C174.93 29.0622 174.554 27.8785 173.802 25.5471C173.461 24.4351 172.538 23.7177 171.582 23.8254ZM197.345 34.2991H201.923C205.75 34.2991 207.698 35.6265 207.698 38.8545C207.698 41.8319 205.58 43.4102 201.855 43.4102H197.345V34.2991ZM235.546 38.1374H237.22V43.3382C236.366 44.1274 234.521 44.8448 232.3 44.8448C229.498 44.8448 228.131 44.0557 228.131 41.8677C228.131 39.0339 231.685 38.1374 235.546 38.1374ZM171.411 39.7514C162.527 41.7602 153.848 44.1991 145.237 47.32C144.144 47.7502 143.529 48.9339 143.836 50.0459C144.52 52.7002 144.861 54.0274 145.545 56.6819C145.886 57.9374 147.219 58.5828 148.449 58.0808C157.06 54.8525 165.739 52.0188 174.588 49.7591C175.443 49.5437 175.853 48.5037 175.545 47.4274C174.862 45.0242 174.486 43.8405 173.768 41.4731C173.427 40.2894 172.402 39.5362 171.411 39.7514Z" fill="#222222"/>
</g>
<defs>
<linearGradient id="paint0_linear_601_8" x1="-8.06755" y1="161.373" x2="253.312" y2="-21.4024" gradientUnits="userSpaceOnUse">
<stop stop-color="#2ACBFE"/>
<stop offset="1" stop-color="#43DDFF"/>
</linearGradient>
<clipPath id="clip0_601_8">
<rect width="258.93" height="149.32" rx="6.35417" fill="white"/>
</clipPath>
</defs>
</svg>
