<svg width="259" height="150" viewBox="0 0 259 150" fill="none" xmlns="http://www.w3.org/2000/svg">
<g clip-path="url(#clip0_601_15)">
<rect width="258.932" height="149.323" rx="6.35417" fill="url(#paint0_linear_601_15)"/>
<path d="M183.328 137.242C187.668 139.561 192.108 141.311 196.596 143.104C200.606 144.691 204.635 145.93 208.663 147.169C214.332 148.841 219.972 150.123 225.663 151.01C229.249 151.564 232.821 152.032 236.424 152.455C237.779 152.635 246.822 152.924 248.176 153.323C244.567 158.301 244.094 161.84 240.485 166.819C235.752 165.904 220.197 166.103 215.465 164.971C201.064 161.537 187.026 156.306 173.402 148.887C166.836 145.322 160.528 141.402 154.368 136.956C151.653 134.984 149.05 132.965 146.431 130.859C143.813 128.754 141.259 126.56 138.737 124.321C134.297 120.306 130.033 116.155 126.06 111.604C122.941 108.031 123.264 102.839 126.089 100.452C133.243 108.922 140.913 116.681 149.354 123.591C157.382 130.207 165.831 136.028 174.718 140.922C177.245 142.29 179.497 142.097 181.455 140.474C182.513 139.661 182.762 138.347 183.328 137.242Z" fill="#00C389"/>
<path d="M183.136 137.171C182.514 138.243 182.302 139.605 181.27 140.387C179.3 142.036 177.05 142.253 174.537 140.908C165.703 136.092 157.313 130.343 149.351 123.79C140.979 116.948 133.37 109.159 126.312 100.825C121.466 94.6768 116.799 88.3912 112.696 81.6471C109.09 75.7138 105.695 69.5978 102.861 63.2418C104.852 61.2435 104.909 60.6298 103.725 57.8797C93.9898 35.0589 89.8215 11.9372 90.6469 -11.5508C90.6716 -12.1196 90.602 -12.7721 91.0074 -13.2245C93.2937 -13.7053 95.5519 -13.3988 97.5945 -11.5115C99.2126 -10.0011 100.233 -7.9873 100.185 -5.88879C100.073 -1.77857 100.375 2.40315 100.503 6.5042C100.523 8.29432 100.75 10.1202 101.009 11.9011C101.532 16.2054 102.103 20.5516 102.992 24.8855C104.282 31.126 105.876 37.2674 107.949 43.3905C110.6 51.2823 113.892 58.9311 117.745 66.34C121.646 73.7908 126.159 80.8249 131.171 87.4904C134.278 91.6519 137.642 95.6725 141.216 99.5103C146.14 104.694 151.129 109.788 156.752 114.115C161.13 117.485 165.62 120.807 170.212 123.776C173.32 125.797 176.479 127.642 179.638 129.486C181.944 130.796 183.216 134.067 183.269 135.812C183.229 136.294 183.143 136.734 183.136 137.171Z" fill="#B47BE8"/>
<path d="M91.4723 -13.6176C91.0646 -13.1625 91.134 -12.5067 91.1087 -11.935C90.2596 11.6743 94.428 34.9102 104.189 57.838C105.377 60.601 105.419 62.2464 103.317 63.2285C101.194 63.7951 99.4751 62.1945 98.5023 59.9938C94.3522 50.367 91.2616 40.5667 88.8957 30.5184C85.3047 15.0744 84.1134 -0.244609 84.8411 -15.4198C85.1596 -22.1933 85.8933 -28.8955 86.3393 -35.6302C86.5097 -38.2272 86.7275 -40.7821 87.0253 -43.3402C87.2687 -45.501 88.5174 -46.4722 90.4 -46.0635C92.0751 -45.6904 93.5322 -43.7283 93.4198 -41.7483C93.0644 -36.6415 92.6617 -31.5768 92.2735 -26.4249C91.9833 -22.3744 91.6458 -18.366 91.3556 -14.3155C91.3047 -14.1379 91.4286 -13.8793 91.4723 -13.6176Z" fill="#FF7D35"/>
<path d="M163.996 9.01115C154.907 10.1948 146.126 11.9166 137.344 14.6068C136.182 15.0014 135.499 16.3286 135.772 17.5122C136.422 20.1666 136.729 21.4937 137.378 24.1839C137.652 25.2959 138.745 25.9057 139.838 25.5111C148.825 22.6057 157.846 20.6329 167.139 19.1981C168.199 19.0546 168.78 17.9068 168.404 16.7231C167.584 14.284 167.174 13.0644 166.319 10.6253C165.944 9.58506 164.987 8.90352 163.996 9.01115ZM201.001 10.7687C196.833 10.7687 193.279 11.2709 188.598 11.9883V51.0862H202.675C210.329 51.0862 217.095 46.3514 217.095 39.2851C217.095 33.9045 214.874 30.5688 209.68 28.9905C213.063 27.5917 214.942 25.0448 214.942 21.2428C214.908 14.5709 208.723 10.7687 201.001 10.7687ZM201.001 18.3731C204.589 18.3731 206.263 20.1307 206.263 22.6057C206.263 25.2242 204.657 26.7308 201.24 26.7308H197.345V18.6959C198.541 18.5166 199.805 18.3731 201.001 18.3731ZM232.573 20.2742C228.815 20.2742 225.329 21.2428 221.776 22.6417L222.459 24.8297C223.382 27.4839 224.475 28.4165 225.842 28.4165C226.423 28.4165 230.831 27.6274 232.471 27.6274C235.614 27.6274 237.049 28.5959 237.22 32.3622C227.79 32.6491 219.828 34.8014 219.828 43.446C219.828 49.1851 224.817 51.8037 230.797 51.8037C237.528 51.8037 242.516 50.4765 245.591 48.0014V32.0037C245.626 23.5382 240.808 20.2742 232.573 20.2742ZM171.582 23.8254C157.367 25.7265 143.529 29.4211 130.374 35.5545C129.417 36.0211 128.836 37.3122 129.041 38.4242C129.554 41.2937 129.827 42.6928 130.339 45.5622C130.579 46.7819 131.638 47.3557 132.731 46.7819C146.091 40.3611 160.169 36.2719 174.623 33.8328C175.545 33.6894 176.023 32.5774 175.648 31.4297C174.93 29.0622 174.554 27.8785 173.802 25.5471C173.461 24.4351 172.538 23.7177 171.582 23.8254ZM197.345 34.2991H201.923C205.75 34.2991 207.698 35.6265 207.698 38.8545C207.698 41.8319 205.58 43.4102 201.855 43.4102H197.345V34.2991ZM235.546 38.1374H237.22V43.3382C236.366 44.1274 234.521 44.8448 232.3 44.8448C229.498 44.8448 228.131 44.0557 228.131 41.8677C228.131 39.0339 231.685 38.1374 235.546 38.1374ZM171.411 39.7514C162.527 41.7602 153.848 44.1991 145.237 47.32C144.144 47.7502 143.529 48.9339 143.836 50.0459C144.52 52.7002 144.861 54.0274 145.545 56.6819C145.886 57.9374 147.219 58.5828 148.449 58.0808C157.06 54.8525 165.739 52.0188 174.588 49.7591C175.443 49.5437 175.853 48.5037 175.545 47.4274C174.862 45.0242 174.486 43.8405 173.768 41.4731C173.427 40.2894 172.402 39.5362 171.411 39.7514Z" fill="#222222"/>
</g>
<defs>
<linearGradient id="paint0_linear_601_15" x1="-8.06762" y1="161.376" x2="253.316" y2="-21.4002" gradientUnits="userSpaceOnUse">
<stop stop-color="#FEB82A"/>
<stop offset="1" stop-color="#FDDA24"/>
</linearGradient>
<clipPath id="clip0_601_15">
<rect width="258.932" height="149.323" rx="6.35417" fill="white"/>
</clipPath>
</defs>
</svg>
