<svg width="545" height="228" viewBox="0 0 545 228" fill="none" xmlns="http://www.w3.org/2000/svg">
<path d="M475.156 166.939C480.979 162.655 486.171 157.74 491.447 152.793C496.144 148.36 500.426 143.602 504.707 138.844C510.645 132.088 516.082 125.039 521.069 117.581C524.206 112.876 527.226 108.118 530.213 103.277C531.362 101.474 532.043 99.463 533.459 97.849C537.11 107.319 540.728 116.704 544.378 126.174C540.013 132.227 535.883 138.383 531.251 144.248C517.169 162.107 501.127 177.905 482.676 191.233C473.799 197.665 464.66 203.422 454.975 208.515C450.692 210.748 446.427 212.781 442.046 214.761C437.665 216.741 433.218 218.552 428.739 220.279C420.762 223.257 412.74 225.864 404.424 227.71C397.896 229.158 391.733 224.25 390.733 218.129C406.045 215.042 420.835 210.603 435.111 204.324C448.743 198.389 461.684 191.167 473.785 182.521C477.197 180.04 478.501 176.624 477.847 172.409C477.572 170.184 476.127 168.702 475.156 166.939Z" fill="#FDDA24"/>
<path d="M475.156 166.939C476.042 168.734 477.572 170.184 477.814 172.324C478.468 176.539 477.164 179.955 473.752 182.436C461.651 191.082 448.71 198.305 435.078 204.239C420.803 210.519 405.895 214.906 390.7 218.044C379.744 219.839 368.742 221.264 357.569 221.492C347.743 221.686 337.839 221.425 328.031 220.156C326.96 215.616 326.244 215.018 322.03 214.409C287.122 209.218 255.732 195.777 227.379 174.853C226.695 174.339 225.843 173.891 225.569 172.928C226.574 169.239 228.528 166.252 232.28 164.903C235.27 163.847 238.463 164.073 241.014 165.906C245.999 169.52 251.36 172.601 256.501 175.863C258.72 177.339 261.127 178.547 263.502 179.671C269.169 182.537 274.92 185.37 280.879 187.734C289.466 191.125 298.144 193.996 307.134 196.163C318.705 198.986 330.426 200.684 342.243 201.373C354.144 202.029 365.96 201.457 377.671 199.856C384.966 198.889 392.268 197.434 399.491 195.523C409.315 192.805 419.074 189.917 428.33 185.475C435.539 182.016 442.768 178.356 449.631 174.253C454.292 171.486 458.769 168.497 463.247 165.508C466.471 163.295 471.388 164.216 473.575 165.606C474.141 166.068 474.623 166.562 475.156 166.939Z" fill="#00C7E5"/>
<path d="M3.0569 2.12109C6.5014 -0.274906 9.1937 -0.341605 12.8637 2.1284C32.0337 14.8418 50.0735 29.1563 67.5676 44.07C69.7479 45.948 71.8956 47.743 74.0759 49.621C84.8469 58.677 95.1241 68.215 105.538 77.602C118.646 89.448 131.839 101.26 145.031 113.073C148.474 116.213 149.232 120.194 147.206 123.5C145.317 126.656 140.031 128.305 136.387 125.146C134.688 123.761 133.074 122.344 131.544 120.894C115.592 106.455 99.7239 91.983 83.7195 77.661C74.3864 69.313 64.9687 60.998 55.4472 52.918C40.4653 40.241 25.1913 28.065 8.9103 17.0543C7.4592 16.0598 6.0407 15.1499 4.5896 14.1554C-0.115103 11.016 -0.698003 6.48199 3.0569 2.12109Z" fill="#FF7D35"/>
<path d="M225.569 172.928C225.843 173.891 226.695 174.339 227.378 174.853C255.732 195.777 287.122 209.219 322.029 214.409C326.244 215.018 326.908 215.733 328.03 220.156C327.247 223.663 324.087 224.784 320.711 224.337C306.019 222.231 291.852 218.467 277.885 213.459C256.45 205.698 236.839 194.611 218.741 180.901C210.659 174.791 202.953 168.147 195.007 161.887C191.942 159.475 188.961 157.031 186.032 154.469C183.552 152.318 183.231 149.722 185.044 147.373C186.668 145.29 190.088 144.845 192.437 146.659C198.45 151.431 204.379 156.235 210.425 161.091C215.189 164.887 219.868 168.716 224.632 172.512C224.814 172.733 225.217 172.772 225.569 172.928Z" fill="#00C389"/>
</svg>
