<svg width="143" height="18" viewBox="0 0 143 18" fill="none" xmlns="http://www.w3.org/2000/svg">
<path d="M130.097 0C129.2 0 128.444 0.74071 128.444 1.63207C128.444 2.54854 129.2 3.26413 130.097 3.26413C131.019 3.26413 131.763 2.49832 131.763 1.63207C131.775 0.7156 131.019 0 130.097 0ZM13.1235 0.76582C9.7151 1.18011 6.42209 1.78272 3.12905 2.7243C2.6934 2.8624 2.43713 3.32691 2.53964 3.7412C2.78309 4.67022 2.89841 5.1347 3.14187 6.0763C3.24437 6.4655 3.6544 6.6789 4.06443 6.5408C7.4344 5.5239 10.8171 4.83343 14.3023 4.33126C14.6995 4.28104 14.9174 3.8793 14.7764 3.465C14.4689 2.61131 14.3151 2.18446 13.9948 1.33076C13.8539 0.96669 13.4951 0.72815 13.1235 0.76582ZM82.6361 0.86625C81.7776 0.86625 80.1503 1.33076 79.3943 1.88315V15.4921H82.6361V0.86625ZM119.129 0.86625C118.296 0.86625 116.643 1.33076 115.887 1.88315V14.8769C116.963 15.3665 118.744 15.7055 120.577 15.7055C124.344 15.7055 126.663 13.4834 126.663 9.6292C126.663 6.8798 125.356 4.69533 122.165 4.69533C121.153 4.69533 120.038 5.1222 119.116 5.9006V0.86625H119.129ZM27.0004 1.38098C25.4372 1.38098 24.1046 1.55674 22.3491 1.80783V15.4921H27.6282C30.4984 15.4921 33.0355 13.8349 33.0355 11.3617C33.0355 9.4785 32.2026 8.311 30.255 7.7586C31.5235 7.269 32.2282 6.3776 32.2282 5.0469C32.2154 2.71174 29.8962 1.38098 27.0004 1.38098ZM27.0004 4.04251C28.3458 4.04251 28.9736 4.65767 28.9736 5.5239C28.9736 6.4404 28.3714 6.9677 27.0901 6.9677H25.6294V4.15549C26.0778 4.09272 26.5519 4.04251 27.0004 4.04251ZM62.9419 4.65767C59.5592 4.65767 56.9324 6.6036 56.9324 10.3197C56.9324 13.747 59.0979 15.7055 62.4038 15.7055C63.3648 15.7055 64.5948 15.4921 65.7737 15.0276L65.1971 12.479C64.4026 12.7552 63.762 12.8557 63.1982 12.8557C61.1609 12.8557 60.3408 11.8137 60.3408 10.1188C60.3408 8.4491 61.2249 7.3443 63.3904 7.3443C63.7364 7.3443 64.3386 7.4322 64.6974 7.5326C65.1843 7.0053 65.6455 6.0763 65.7737 5.0092C64.7358 4.78321 63.8773 4.65767 62.9419 4.65767ZM71.9882 4.65767C68.7079 4.65767 66.3887 6.7794 66.3887 10.169C66.3887 13.5211 68.5798 15.7055 71.9882 15.7055C75.3709 15.7055 77.5876 13.5838 77.5876 10.169C77.5748 6.8672 75.3965 4.65767 71.9882 4.65767ZM90.055 4.65767C86.7748 4.65767 84.4556 6.7794 84.4556 10.169C84.4556 13.5211 86.6467 15.7055 90.055 15.7055C93.4378 15.7055 95.6545 13.5838 95.6545 10.169C95.6545 6.8672 93.4634 4.65767 90.055 4.65767ZM50.987 4.68278C49.206 4.68278 47.0277 5.1724 45.6695 6.0638L45.6439 15.4921H48.8856V7.5452C49.2957 7.4447 49.7698 7.3694 50.2567 7.3694C51.5636 7.3694 52.3196 7.9469 52.3196 9.0643V15.4921H55.5358V7.9469C55.5358 5.888 53.46 4.68278 50.987 4.68278ZM102.279 4.68278C100.588 4.68278 98.576 5.1724 97.282 6.0638L97.256 15.4921H100.498V7.5452C100.908 7.4447 101.382 7.3694 101.869 7.3694C103.15 7.3694 103.881 7.9469 103.881 9.0643V15.4921H107.071V9.2149C107.071 8.6625 106.982 8.1603 106.815 7.6958C107.289 7.5075 107.866 7.382 108.468 7.382C109.749 7.382 110.48 7.9595 110.48 9.0768V15.5046H113.67V7.9469C113.67 5.9131 111.851 4.68278 109.506 4.68278C108.224 4.68278 106.7 5.1473 105.598 5.8503C104.778 5.1222 103.624 4.68278 102.279 4.68278ZM130.122 4.68278C129.495 4.68278 128.944 4.79577 128.495 4.98408V15.4921H131.737V4.98408C131.276 4.78321 130.75 4.68278 130.122 4.68278ZM38.84 4.70789C37.4305 4.70789 36.1235 5.0469 34.7909 5.5365L35.0472 6.3023C35.3932 7.2313 35.8032 7.5577 36.3157 7.5577C36.5335 7.5577 38.1865 7.2815 38.8015 7.2815C39.9803 7.2815 40.5185 7.6205 40.5826 8.9387C37.0461 9.0391 34.0606 9.7924 34.0606 12.818C34.0606 14.8267 35.9313 15.7432 38.1737 15.7432C40.6979 15.7432 42.5686 15.2787 43.7218 14.4124V8.8132C43.7347 5.8503 41.928 4.70789 38.84 4.70789ZM138.118 4.70789C136.709 4.70789 135.402 5.0469 134.069 5.5365L134.325 6.3023C134.671 7.2313 135.081 7.5577 135.594 7.5577C135.812 7.5577 137.465 7.2815 138.08 7.2815C139.258 7.2815 139.797 7.6205 139.861 8.9387C136.324 9.0391 133.339 9.7924 133.339 12.818C133.339 14.8267 135.209 15.7432 137.452 15.7432C139.976 15.7432 141.847 15.2787 143 14.4124V8.8132C143.013 5.8503 141.206 4.70789 138.118 4.70789ZM15.9681 5.9508C10.6377 6.6162 5.44828 7.9093 0.515122 10.056C0.156352 10.2193 -0.0614785 10.6712 0.0154015 11.0604C0.207601 12.0647 0.310112 12.5544 0.502312 13.5587C0.592002 13.9856 0.989222 14.1864 1.39925 13.9856C6.40928 11.7383 11.6884 10.3071 17.1085 9.4534C17.4544 9.4032 17.6338 9.014 17.4929 8.6123C17.2238 7.7837 17.0828 7.3694 16.8009 6.5534C16.6728 6.1642 16.3268 5.9131 15.9681 5.9508ZM120.794 7.3694C122.447 7.3694 123.472 8.0725 123.472 10.0184C123.472 11.7132 122.652 13.157 120.769 13.157C120.256 13.157 119.692 13.1193 119.116 13.0314V7.7084C119.603 7.495 120.128 7.3694 120.794 7.3694ZM71.9882 7.4196C73.4873 7.4196 74.3458 8.4365 74.3458 10.1816C74.3458 12.002 73.4873 12.9561 71.9882 12.9561C70.5146 12.9561 69.6305 12.002 69.6305 10.1816C69.6305 8.4365 70.5275 7.4196 71.9882 7.4196ZM90.055 7.4196C91.5542 7.4196 92.4127 8.4365 92.4127 10.1816C92.4127 12.002 91.5542 12.9561 90.055 12.9561C88.5815 12.9561 87.6974 12.002 87.6974 10.1816C87.6974 8.4365 88.5943 7.4196 90.055 7.4196ZM25.6294 9.6166H27.3463C28.7814 9.6166 29.5118 10.0812 29.5118 11.211C29.5118 12.2531 28.7174 12.8055 27.3207 12.8055H25.6294V9.6166ZM39.9547 10.96H40.5826V12.7803C40.2622 13.0565 39.5703 13.3076 38.7374 13.3076C37.6867 13.3076 37.1742 13.0314 37.1742 12.2656C37.1742 11.2738 38.5068 10.96 39.9547 10.96ZM139.233 10.96H139.861V12.7803C139.54 13.0565 138.848 13.3076 138.016 13.3076C136.965 13.3076 136.452 13.0314 136.452 12.2656C136.452 11.2738 137.772 10.96 139.233 10.96ZM15.904 11.5249C12.5725 12.228 9.3179 13.0816 6.08894 14.1739C5.67892 14.3245 5.44828 14.7388 5.5636 15.128C5.81986 16.057 5.948 16.5215 6.20427 17.4506C6.3324 17.89 6.83212 18.1159 7.2934 17.9402C10.5224 16.8103 13.777 15.8185 17.0956 15.0276C17.416 14.9522 17.5697 14.5882 17.4544 14.2115C17.1981 13.3704 17.0572 12.9561 16.7881 12.1275C16.66 11.7132 16.2756 11.4496 15.904 11.5249Z" fill="#222222"/>
</svg>
