<svg width="18" height="18" viewBox="0 0 18 18" fill="none" xmlns="http://www.w3.org/2000/svg">
<path d="M13.1235 0.00390229C9.7151 0.418192 6.42209 1.0208 3.12905 1.96238C2.6934 2.10048 2.43713 2.56499 2.53964 2.97928C2.78309 3.9083 2.89841 4.37278 3.14187 5.31438C3.24437 5.70358 3.6544 5.91698 4.06443 5.77888C7.4344 4.76198 10.8171 4.07151 14.3023 3.56934C14.6995 3.51912 14.9174 3.11738 14.7764 2.70308C14.4689 1.84939 14.3151 1.42254 13.9948 0.568842C13.8539 0.204772 13.4951 -0.0337677 13.1235 0.00390229ZM15.9681 5.18888C10.6377 5.85428 5.44828 7.14738 0.515122 9.29408C0.156352 9.45738 -0.0614785 9.90928 0.0154015 10.2985C0.207601 11.3028 0.310112 11.7925 0.502312 12.7968C0.592002 13.2237 0.989222 13.4245 1.39925 13.2237C6.40928 10.9764 11.6884 9.54518 17.1085 8.69148C17.4544 8.64128 17.6338 8.25208 17.4929 7.85038C17.2238 7.02178 17.0828 6.60748 16.8009 5.79148C16.6728 5.40228 16.3268 5.15118 15.9681 5.18888ZM15.904 10.763C12.5725 11.4661 9.3179 12.3197 6.08894 13.412C5.67892 13.5626 5.44828 13.9769 5.5636 14.3661C5.81986 15.2951 5.948 15.7596 6.20427 16.6887C6.3324 17.1281 6.83212 17.354 7.2934 17.1783C10.5224 16.0484 13.777 15.0566 17.0956 14.2657C17.416 14.1903 17.5697 13.8263 17.4544 13.4496C17.1981 12.6085 17.0572 12.1942 16.7881 11.3656C16.66 10.9513 16.2756 10.6877 15.904 10.763Z" fill="#222222"/>
</svg>
